# xmcd
#
# Track frame offsets:
#  150
#  17917
#  31847
#  38150
#  64625
#  112215
#  167704
#  176266
#  235776
#  278344
#  293179
#  311904
#  354784
#
# Disc length: 4738 seconds
#
# Revision: 0
# Processed by: cddbd v1.5.2PL0 Copyright (c) Steve Scherf et al.
# Submitted via: Collectorz.com_Music_Collector 6.9
#
DISCID=ac12800d
DTITLE=Dream Theater - Once In A LIVETime [CD1]
DYEAR=1998
DGENRE=Progressive Metal
TTITLE0=A Change Of Seasons I: The Crimson Sunrise
TTITLE1=A Change Of Seasons II: Innocence
TTITLE2=Puppies On Acid
TTITLE3=Just Let Me Breathe
TTITLE4=Voices
TTITLE5=Take The Time
TTITLE6=Derek Sherinian Piano Solo
TTITLE7=Lines In The Sand
TTITLE8=Scarred
TTITLE9=A Change Of Seasons IV: The Darkest Of Winters
TTITLE10=Ytse Jam
TTITLE11=Mike Portnoy Drum Solo
TTITLE12=Data track
EXTD=
EXTT0=
EXTT1=
EXTT2=
EXTT3=
EXTT4=
EXTT5=
EXTT6=
EXTT7=
EXTT8=
EXTT9=
EXTT10=
EXTT11=
EXTT12=
PLAYORDER=
